<?xml version="1.0" encoding="utf-8"?>
<!-- Generator: Adobe Illustrator 24.3.0, SVG Export Plug-In . SVG Version: 6.00 Build 0)  -->
<svg version="1.1" id="Layer_1" xmlns="http://www.w3.org/2000/svg" xmlns:xlink="http://www.w3.org/1999/xlink" x="0px" y="0px"
	 viewBox="0 0 595.3 841.9" style="enable-background:new 0 0 595.3 841.9;" xml:space="preserve">
<style type="text/css">
	.st0{clip-path:url(#SVGID_2_);}
	.st1{fill:none;stroke:#0000FF;stroke-width:1.5224;stroke-miterlimit:6.0898;}
	.st2{font-family:'ArialMT';}
	.st3{font-size:10.3251px;}
	.st4{fill:none;stroke:#0000FF;stroke-width:3.3494;stroke-miterlimit:6.0898;}
	.st5{fill:none;stroke:#0007FF;stroke-width:3.3494;stroke-miterlimit:6.0898;}
	.st6{fill:none;stroke:#000EFF;stroke-width:3.3494;stroke-miterlimit:6.0898;}
	.st7{fill:none;stroke:#0015FF;stroke-width:3.3494;stroke-miterlimit:6.0898;}
	.st8{fill:none;stroke:#001CFF;stroke-width:3.3494;stroke-miterlimit:6.0898;}
	.st9{fill:none;stroke:#0023FF;stroke-width:3.3494;stroke-miterlimit:6.0898;}
	.st10{fill:none;stroke:#002BFF;stroke-width:3.3494;stroke-miterlimit:6.0898;}
	.st11{fill:none;stroke:#0032FF;stroke-width:3.3494;stroke-miterlimit:6.0898;}
	.st12{fill:none;stroke:#0039FF;stroke-width:3.3494;stroke-miterlimit:6.0898;}
	.st13{fill:none;stroke:#0040FF;stroke-width:3.3494;stroke-miterlimit:6.0898;}
	.st14{fill:none;stroke:#0047FF;stroke-width:3.3494;stroke-miterlimit:6.0898;}
	.st15{fill:none;stroke:#004FFF;stroke-width:3.3494;stroke-miterlimit:6.0898;}
	.st16{fill:none;stroke:#0056FF;stroke-width:3.3494;stroke-miterlimit:6.0898;}
	.st17{fill:none;stroke:#005DFF;stroke-width:3.3494;stroke-miterlimit:6.0898;}
	.st18{fill:none;stroke:#0064FF;stroke-width:3.3494;stroke-miterlimit:6.0898;}
	.st19{fill:none;stroke:#006BFF;stroke-width:3.3494;stroke-miterlimit:6.0898;}
	.st20{fill:none;stroke:#0073FF;stroke-width:3.3494;stroke-miterlimit:6.0898;}
	.st21{fill:none;stroke:#007AFF;stroke-width:3.3494;stroke-miterlimit:6.0898;}
	.st22{fill:none;stroke:#0081FF;stroke-width:3.3494;stroke-miterlimit:6.0898;}
	.st23{fill:none;stroke:#0088FF;stroke-width:3.3494;stroke-miterlimit:6.0898;}
	.st24{fill:none;stroke:#008FFF;stroke-width:3.3494;stroke-miterlimit:6.0898;}
	.st25{fill:none;stroke:#0097FF;stroke-width:3.3494;stroke-miterlimit:6.0898;}
	.st26{fill:none;stroke:#009EFF;stroke-width:3.3494;stroke-miterlimit:6.0898;}
	.st27{fill:none;stroke:#00A5FF;stroke-width:3.3494;stroke-miterlimit:6.0898;}
	.st28{fill:none;stroke:#00ACFF;stroke-width:3.3494;stroke-miterlimit:6.0898;}
	.st29{fill:none;stroke:#00B3FF;stroke-width:3.3494;stroke-miterlimit:6.0898;}
	.st30{fill:none;stroke:#00BBFF;stroke-width:3.3494;stroke-miterlimit:6.0898;}
	.st31{fill:none;stroke:#00C2FF;stroke-width:3.3494;stroke-miterlimit:6.0898;}
	.st32{fill:none;stroke:#00C9FF;stroke-width:3.3494;stroke-miterlimit:6.0898;}
	.st33{fill:none;stroke:#00D0FF;stroke-width:3.3494;stroke-miterlimit:6.0898;}
	.st34{fill:none;stroke:#00D7FF;stroke-width:3.3494;stroke-miterlimit:6.0898;}
	.st35{fill:none;stroke:#00DFFF;stroke-width:3.3494;stroke-miterlimit:6.0898;}
	.st36{fill:none;stroke:#00E6FF;stroke-width:3.3494;stroke-miterlimit:6.0898;}
	.st37{fill:none;stroke:#00EDFF;stroke-width:3.3494;stroke-miterlimit:6.0898;}
	.st38{fill:none;stroke:#00F4FF;stroke-width:3.3494;stroke-miterlimit:6.0898;}
	.st39{fill:none;stroke:#00FBFF;stroke-width:3.3494;stroke-miterlimit:6.0898;}
	.st40{fill:none;stroke:#03FFFC;stroke-width:3.3494;stroke-miterlimit:6.0898;}
	.st41{fill:none;stroke:#0AFFF5;stroke-width:3.3494;stroke-miterlimit:6.0898;}
	.st42{fill:none;stroke:#11FFEE;stroke-width:3.3494;stroke-miterlimit:6.0898;}
	.st43{fill:none;stroke:#18FFE7;stroke-width:3.3494;stroke-miterlimit:6.0898;}
	.st44{fill:none;stroke:#1FFFDF;stroke-width:3.3494;stroke-miterlimit:6.0898;}
	.st45{fill:none;stroke:#27FFD8;stroke-width:3.3494;stroke-miterlimit:6.0898;}
	.st46{fill:none;stroke:#2EFFD1;stroke-width:3.3494;stroke-miterlimit:6.0898;}
	.st47{fill:none;stroke:#35FFCA;stroke-width:3.3494;stroke-miterlimit:6.0898;}
	.st48{fill:none;stroke:#3CFFC3;stroke-width:3.3494;stroke-miterlimit:6.0898;}
	.st49{fill:none;stroke:#43FFBB;stroke-width:3.3494;stroke-miterlimit:6.0898;}
	.st50{fill:none;stroke:#4BFFB4;stroke-width:3.3494;stroke-miterlimit:6.0898;}
	.st51{fill:none;stroke:#52FFAD;stroke-width:3.3494;stroke-miterlimit:6.0898;}
	.st52{fill:none;stroke:#59FFA6;stroke-width:3.3494;stroke-miterlimit:6.0898;}
	.st53{fill:none;stroke:#60FF9F;stroke-width:3.3494;stroke-miterlimit:6.0898;}
	.st54{fill:none;stroke:#67FF97;stroke-width:3.3494;stroke-miterlimit:6.0898;}
	.st55{fill:none;stroke:#6FFF90;stroke-width:3.3494;stroke-miterlimit:6.0898;}
	.st56{fill:none;stroke:#76FF89;stroke-width:3.3494;stroke-miterlimit:6.0898;}
	.st57{fill:none;stroke:#7DFF82;stroke-width:3.3494;stroke-miterlimit:6.0898;}
	.st58{fill:none;stroke:#84FF7B;stroke-width:3.3494;stroke-miterlimit:6.0898;}
	.st59{fill:none;stroke:#8BFF73;stroke-width:3.3494;stroke-miterlimit:6.0898;}
	.st60{fill:none;stroke:#93FF6C;stroke-width:3.3494;stroke-miterlimit:6.0898;}
	.st61{fill:none;stroke:#9AFF65;stroke-width:3.3494;stroke-miterlimit:6.0898;}
	.st62{fill:none;stroke:#A1FF5E;stroke-width:3.3494;stroke-miterlimit:6.0898;}
	.st63{fill:none;stroke:#A8FF57;stroke-width:3.3494;stroke-miterlimit:6.0898;}
	.st64{fill:none;stroke:#AFFF4F;stroke-width:3.3494;stroke-miterlimit:6.0898;}
	.st65{fill:none;stroke:#B7FF48;stroke-width:3.3494;stroke-miterlimit:6.0898;}
	.st66{fill:none;stroke:#BEFF41;stroke-width:3.3494;stroke-miterlimit:6.0898;}
	.st67{fill:none;stroke:#C5FF3A;stroke-width:3.3494;stroke-miterlimit:6.0898;}
	.st68{fill:none;stroke:#CCFF33;stroke-width:3.3494;stroke-miterlimit:6.0898;}
	.st69{fill:none;stroke:#D3FF2B;stroke-width:3.3494;stroke-miterlimit:6.0898;}
	.st70{fill:none;stroke:#DBFF24;stroke-width:3.3494;stroke-miterlimit:6.0898;}
	.st71{fill:none;stroke:#E2FF1D;stroke-width:3.3494;stroke-miterlimit:6.0898;}
	.st72{fill:none;stroke:#E9FF16;stroke-width:3.3494;stroke-miterlimit:6.0898;}
	.st73{fill:none;stroke:#F0FF0F;stroke-width:3.3494;stroke-miterlimit:6.0898;}
	.st74{fill:none;stroke:#F7FF07;stroke-width:3.3494;stroke-miterlimit:6.0898;}
	.st75{fill:none;stroke:#FFFF00;stroke-width:3.3494;stroke-miterlimit:6.0898;}
	.st76{fill:none;stroke:#FFF900;stroke-width:3.3494;stroke-miterlimit:6.0898;}
	.st77{fill:none;stroke:#FFF200;stroke-width:3.3494;stroke-miterlimit:6.0898;}
	.st78{fill:none;stroke:#FFEB00;stroke-width:3.3494;stroke-miterlimit:6.0898;}
	.st79{fill:none;stroke:#FFE300;stroke-width:3.3494;stroke-miterlimit:6.0898;}
	.st80{fill:none;stroke:#FFDC00;stroke-width:3.3494;stroke-miterlimit:6.0898;}
	.st81{fill:none;stroke:#FFD500;stroke-width:3.3494;stroke-miterlimit:6.0898;}
	.st82{fill:none;stroke:#FFCE00;stroke-width:3.3494;stroke-miterlimit:6.0898;}
	.st83{fill:none;stroke:#FFC700;stroke-width:3.3494;stroke-miterlimit:6.0898;}
	.st84{fill:none;stroke:#FFBF00;stroke-width:3.3494;stroke-miterlimit:6.0898;}
	.st85{fill:none;stroke:#FFB800;stroke-width:3.3494;stroke-miterlimit:6.0898;}
	.st86{fill:none;stroke:#FFB100;stroke-width:3.3494;stroke-miterlimit:6.0898;}
	.st87{fill:none;stroke:#FFAA00;stroke-width:3.3494;stroke-miterlimit:6.0898;}
	.st88{fill:none;stroke:#FFA300;stroke-width:3.3494;stroke-miterlimit:6.0898;}
	.st89{fill:none;stroke:#FF9B00;stroke-width:3.3494;stroke-miterlimit:6.0898;}
	.st90{fill:none;stroke:#FF9400;stroke-width:3.3494;stroke-miterlimit:6.0898;}
	.st91{fill:none;stroke:#FF8D00;stroke-width:3.3494;stroke-miterlimit:6.0898;}
	.st92{fill:none;stroke:#FF8600;stroke-width:3.3494;stroke-miterlimit:6.0898;}
	.st93{fill:none;stroke:#FF7F00;stroke-width:3.3494;stroke-miterlimit:6.0898;}
	.st94{fill:none;stroke:#FF7700;stroke-width:3.3494;stroke-miterlimit:6.0898;}
	.st95{fill:none;stroke:#FF7000;stroke-width:3.3494;stroke-miterlimit:6.0898;}
	.st96{fill:none;stroke:#FF6900;stroke-width:3.3494;stroke-miterlimit:6.0898;}
	.st97{fill:none;stroke:#FF6200;stroke-width:3.3494;stroke-miterlimit:6.0898;}
	.st98{fill:none;stroke:#FF5B00;stroke-width:3.3494;stroke-miterlimit:6.0898;}
	.st99{fill:none;stroke:#FF5300;stroke-width:3.3494;stroke-miterlimit:6.0898;}
	.st100{fill:none;stroke:#FF4C00;stroke-width:3.3494;stroke-miterlimit:6.0898;}
	.st101{fill:none;stroke:#FF4500;stroke-width:3.3494;stroke-miterlimit:6.0898;}
	.st102{fill:none;stroke:#FF3E00;stroke-width:3.3494;stroke-miterlimit:6.0898;}
	.st103{fill:none;stroke:#FF3700;stroke-width:3.3494;stroke-miterlimit:6.0898;}
	.st104{fill:none;stroke:#FF2F00;stroke-width:3.3494;stroke-miterlimit:6.0898;}
	.st105{fill:none;stroke:#FF2800;stroke-width:3.3494;stroke-miterlimit:6.0898;}
	.st106{fill:none;stroke:#FF2100;stroke-width:3.3494;stroke-miterlimit:6.0898;}
	.st107{fill:none;stroke:#FF1A00;stroke-width:3.3494;stroke-miterlimit:6.0898;}
	.st108{fill:none;stroke:#FF1300;stroke-width:3.3494;stroke-miterlimit:6.0898;}
	.st109{fill:none;stroke:#FF0B00;stroke-width:3.3494;stroke-miterlimit:6.0898;}
</style>
<g>
	<g>
		<defs>
			<rect id="SVGID_1_" x="182" y="270.8" width="254.4" height="300.4"/>
		</defs>
		<clipPath id="SVGID_2_">
			<use xlink:href="#SVGID_1_"  style="overflow:visible;"/>
		</clipPath>
		<g class="st0">
			
				<image style="overflow:visible;enable-background:new    ;" width="20" height="19" xlink:href="CB860563.png"  image-rendering="pixelated" transform="matrix(12.437 0 0 15.4629 187.5871 277.3324)">
			</image>
			<line class="st1" x1="220.1" y1="571.1" x2="285.1" y2="571.1"/>
			<line class="st1" x1="220.1" y1="571.1" x2="220.1" y2="533.5"/>
			<line class="st1" x1="285.1" y1="571.1" x2="285.1" y2="470.6"/>
			<line class="st1" x1="199.9" y1="533.5" x2="240.2" y2="533.5"/>
			<line class="st1" x1="199.9" y1="533.5" x2="199.9" y2="461"/>
			<line class="st1" x1="240.2" y1="533.5" x2="240.2" y2="526"/>
			<line class="st1" x1="193.9" y1="461" x2="205.9" y2="461"/>
			<line class="st1" x1="193.9" y1="461" x2="193.9" y2="409"/>
			<line class="st1" x1="205.9" y1="461" x2="205.9" y2="409"/>
			<line class="st1" x1="226.8" y1="526" x2="253.7" y2="526"/>
			<line class="st1" x1="226.8" y1="526" x2="226.8" y2="511.4"/>
			<line class="st1" x1="253.7" y1="526" x2="253.7" y2="409"/>
			<line class="st1" x1="217.8" y1="511.4" x2="235.7" y2="511.4"/>
			<line class="st1" x1="217.8" y1="511.4" x2="217.8" y2="409"/>
			<line class="st1" x1="235.7" y1="511.4" x2="235.7" y2="465.1"/>
			<line class="st1" x1="229.8" y1="465.1" x2="241.7" y2="465.1"/>
			<line class="st1" x1="229.8" y1="465.1" x2="229.8" y2="409"/>
			<line class="st1" x1="241.7" y1="465.1" x2="241.7" y2="409"/>
			<line class="st1" x1="271.6" y1="470.6" x2="298.5" y2="470.6"/>
			<line class="st1" x1="271.6" y1="470.6" x2="271.6" y2="446.4"/>
			<line class="st1" x1="298.5" y1="470.6" x2="298.5" y2="446.1"/>
			<line class="st1" x1="265.6" y1="446.4" x2="277.6" y2="446.4"/>
			<line class="st1" x1="265.6" y1="446.4" x2="265.6" y2="409"/>
			<line class="st1" x1="277.6" y1="446.4" x2="277.6" y2="409"/>
			<line class="st1" x1="289.5" y1="446.1" x2="307.5" y2="446.1"/>
			<line class="st1" x1="289.5" y1="446.1" x2="289.5" y2="409"/>
			<line class="st1" x1="307.5" y1="446.1" x2="307.5" y2="435.1"/>
			<line class="st1" x1="301.5" y1="435.1" x2="313.4" y2="435.1"/>
			<line class="st1" x1="301.5" y1="435.1" x2="301.5" y2="409"/>
			<line class="st1" x1="313.4" y1="435.1" x2="313.4" y2="409"/>
			<line class="st1" x1="424.4" y1="307.6" x2="424.4" y2="285.5"/>
			<line class="st1" x1="424.4" y1="307.6" x2="412.7" y2="307.6"/>
			<line class="st1" x1="424.4" y1="285.5" x2="388.5" y2="285.5"/>
			<line class="st1" x1="412.7" y1="315" x2="412.7" y2="300.2"/>
			<line class="st1" x1="412.7" y1="315" x2="388.5" y2="315"/>
			<line class="st1" x1="412.7" y1="300.2" x2="388.5" y2="300.2"/>
			<text transform="matrix(6.123234e-17 -1 1 6.123234e-17 194.5518 399.7307)" class="st2 st3">Fish Egg</text>
			<text transform="matrix(6.123234e-17 -1 1 6.123234e-17 206.5059 399.7307)" class="st2 st3">Fish Larvae</text>
			<text transform="matrix(6.123234e-17 -1 1 6.123234e-17 218.46 399.7307)" class="st2 st3">Crab Zoae</text>
			<text transform="matrix(6.123234e-17 -1 1 6.123234e-17 230.4131 399.7307)" class="st2 st3">Hydrozoa</text>
			<text transform="matrix(6.123234e-17 -1 1 6.123234e-17 242.3672 399.7307)" class="st2 st3">Polychaeta</text>
			<text transform="matrix(6.123234e-17 -1 1 6.123234e-17 254.3213 399.7307)" class="st2 st3">UnIdentified</text>
			<text transform="matrix(6.123234e-17 -1 1 6.123234e-17 266.2754 399.7307)" class="st2 st3">Malacostraca</text>
			<text transform="matrix(6.123234e-17 -1 1 6.123234e-17 278.2295 399.7307)" class="st2 st3">Copepoda</text>
			<text transform="matrix(6.123234e-17 -1 1 6.123234e-17 290.1826 399.7307)" class="st2 st3">Rotifera</text>
			<text transform="matrix(6.123234e-17 -1 1 6.123234e-17 302.1367 399.7307)" class="st2 st3">Branchiopoda</text>
			<text transform="matrix(6.123234e-17 -1 1 6.123234e-17 314.0908 399.7307)" class="st2 st3">Shrimp Larvae</text>
			<text transform="matrix(1 0 0 1 325.4014 318.4182)" class="st2 st3">postmonsoon</text>
			<text transform="matrix(1 0 0 1 325.4014 303.6769)" class="st2 st3">premonsoon</text>
			<text transform="matrix(1 0 0 1 325.4014 288.9367)" class="st2 st3">monsoon</text>
		</g>
	</g>
	<text transform="matrix(1 0 0 1 453.2227 473.8224)" class="st2 st3">0</text>
	<text transform="matrix(1 0 0 1 453.2227 440.4474)" class="st2 st3">44.7</text>
	<text transform="matrix(1 0 0 1 453.2227 407.0734)" class="st2 st3">89.3</text>
	<text transform="matrix(1 0 0 1 453.2227 373.6994)" class="st2 st3">134</text>
	<line class="st4" x1="441" y1="470.1" x2="450.4" y2="470.1"/>
	<line class="st5" x1="441" y1="469.1" x2="450.4" y2="469.1"/>
	<line class="st6" x1="441" y1="468.2" x2="450.4" y2="468.2"/>
	<line class="st7" x1="441" y1="467.3" x2="450.4" y2="467.3"/>
	<line class="st8" x1="441" y1="466.3" x2="450.4" y2="466.3"/>
	<line class="st9" x1="441" y1="465.4" x2="450.4" y2="465.4"/>
	<line class="st10" x1="441" y1="464.4" x2="450.4" y2="464.4"/>
	<line class="st11" x1="441" y1="463.5" x2="450.4" y2="463.5"/>
	<line class="st12" x1="441" y1="462.6" x2="450.4" y2="462.6"/>
	<line class="st13" x1="441" y1="461.6" x2="450.4" y2="461.6"/>
	<line class="st14" x1="441" y1="460.7" x2="450.4" y2="460.7"/>
	<line class="st15" x1="441" y1="459.7" x2="450.4" y2="459.7"/>
	<line class="st16" x1="441" y1="458.8" x2="450.4" y2="458.8"/>
	<line class="st17" x1="441" y1="457.9" x2="450.4" y2="457.9"/>
	<line class="st18" x1="441" y1="456.9" x2="450.4" y2="456.9"/>
	<line class="st19" x1="441" y1="456" x2="450.4" y2="456"/>
	<line class="st20" x1="441" y1="455" x2="450.4" y2="455"/>
	<line class="st21" x1="441" y1="454.1" x2="450.4" y2="454.1"/>
	<line class="st22" x1="441" y1="453.2" x2="450.4" y2="453.2"/>
	<line class="st23" x1="441" y1="452.2" x2="450.4" y2="452.2"/>
	<line class="st24" x1="441" y1="451.3" x2="450.4" y2="451.3"/>
	<line class="st25" x1="441" y1="450.4" x2="450.4" y2="450.4"/>
	<line class="st26" x1="441" y1="449.4" x2="450.4" y2="449.4"/>
	<line class="st27" x1="441" y1="448.5" x2="450.4" y2="448.5"/>
	<line class="st28" x1="441" y1="447.5" x2="450.4" y2="447.5"/>
	<line class="st29" x1="441" y1="446.6" x2="450.4" y2="446.6"/>
	<line class="st30" x1="441" y1="445.7" x2="450.4" y2="445.7"/>
	<line class="st31" x1="441" y1="444.7" x2="450.4" y2="444.7"/>
	<line class="st32" x1="441" y1="443.8" x2="450.4" y2="443.8"/>
	<line class="st33" x1="441" y1="442.8" x2="450.4" y2="442.8"/>
	<line class="st34" x1="441" y1="441.9" x2="450.4" y2="441.9"/>
	<line class="st35" x1="441" y1="441" x2="450.4" y2="441"/>
	<line class="st36" x1="441" y1="440" x2="450.4" y2="440"/>
	<line class="st37" x1="441" y1="439.1" x2="450.4" y2="439.1"/>
	<line class="st38" x1="441" y1="438.2" x2="450.4" y2="438.2"/>
	<line class="st39" x1="441" y1="437.2" x2="450.4" y2="437.2"/>
	<line class="st40" x1="441" y1="436.3" x2="450.4" y2="436.3"/>
	<line class="st41" x1="441" y1="435.3" x2="450.4" y2="435.3"/>
	<line class="st42" x1="441" y1="434.4" x2="450.4" y2="434.4"/>
	<line class="st43" x1="441" y1="433.5" x2="450.4" y2="433.5"/>
	<line class="st44" x1="441" y1="432.5" x2="450.4" y2="432.5"/>
	<line class="st45" x1="441" y1="431.6" x2="450.4" y2="431.6"/>
	<line class="st46" x1="441" y1="430.6" x2="450.4" y2="430.6"/>
	<line class="st47" x1="441" y1="429.7" x2="450.4" y2="429.7"/>
	<line class="st48" x1="441" y1="428.8" x2="450.4" y2="428.8"/>
	<line class="st49" x1="441" y1="427.8" x2="450.4" y2="427.8"/>
	<line class="st50" x1="441" y1="426.9" x2="450.4" y2="426.9"/>
	<line class="st51" x1="441" y1="426" x2="450.4" y2="426"/>
	<line class="st52" x1="441" y1="425" x2="450.4" y2="425"/>
	<line class="st53" x1="441" y1="424.1" x2="450.4" y2="424.1"/>
	<line class="st54" x1="441" y1="423.1" x2="450.4" y2="423.1"/>
	<line class="st55" x1="441" y1="422.2" x2="450.4" y2="422.2"/>
	<line class="st56" x1="441" y1="421.3" x2="450.4" y2="421.3"/>
	<line class="st57" x1="441" y1="420.3" x2="450.4" y2="420.3"/>
	<line class="st58" x1="441" y1="419.4" x2="450.4" y2="419.4"/>
	<line class="st59" x1="441" y1="418.4" x2="450.4" y2="418.4"/>
	<line class="st60" x1="441" y1="417.5" x2="450.4" y2="417.5"/>
	<line class="st61" x1="441" y1="416.6" x2="450.4" y2="416.6"/>
	<line class="st62" x1="441" y1="415.6" x2="450.4" y2="415.6"/>
	<line class="st63" x1="441" y1="414.7" x2="450.4" y2="414.7"/>
	<line class="st64" x1="441" y1="413.7" x2="450.4" y2="413.7"/>
	<line class="st65" x1="441" y1="412.8" x2="450.4" y2="412.8"/>
	<line class="st66" x1="441" y1="411.9" x2="450.4" y2="411.9"/>
	<line class="st67" x1="441" y1="410.9" x2="450.4" y2="410.9"/>
	<line class="st68" x1="441" y1="410" x2="450.4" y2="410"/>
	<line class="st69" x1="441" y1="409.1" x2="450.4" y2="409.1"/>
	<line class="st70" x1="441" y1="408.1" x2="450.4" y2="408.1"/>
	<line class="st71" x1="441" y1="407.2" x2="450.4" y2="407.2"/>
	<line class="st72" x1="441" y1="406.2" x2="450.4" y2="406.2"/>
	<line class="st73" x1="441" y1="405.3" x2="450.4" y2="405.3"/>
	<line class="st74" x1="441" y1="404.4" x2="450.4" y2="404.4"/>
	<line class="st75" x1="441" y1="403.4" x2="450.4" y2="403.4"/>
	<line class="st76" x1="441" y1="402.5" x2="450.4" y2="402.5"/>
	<line class="st77" x1="441" y1="401.5" x2="450.4" y2="401.5"/>
	<line class="st78" x1="441" y1="400.6" x2="450.4" y2="400.6"/>
	<line class="st79" x1="441" y1="399.7" x2="450.4" y2="399.7"/>
	<line class="st80" x1="441" y1="398.7" x2="450.4" y2="398.7"/>
	<line class="st81" x1="441" y1="397.8" x2="450.4" y2="397.8"/>
	<line class="st82" x1="441" y1="396.9" x2="450.4" y2="396.9"/>
	<line class="st83" x1="441" y1="395.9" x2="450.4" y2="395.9"/>
	<line class="st84" x1="441" y1="395" x2="450.4" y2="395"/>
	<line class="st85" x1="441" y1="394" x2="450.4" y2="394"/>
	<line class="st86" x1="441" y1="393.1" x2="450.4" y2="393.1"/>
	<line class="st87" x1="441" y1="392.2" x2="450.4" y2="392.2"/>
	<line class="st88" x1="441" y1="391.2" x2="450.4" y2="391.2"/>
	<line class="st89" x1="441" y1="390.3" x2="450.4" y2="390.3"/>
	<line class="st90" x1="441" y1="389.3" x2="450.4" y2="389.3"/>
	<line class="st91" x1="441" y1="388.4" x2="450.4" y2="388.4"/>
	<line class="st92" x1="441" y1="387.5" x2="450.4" y2="387.5"/>
	<line class="st93" x1="441" y1="386.5" x2="450.4" y2="386.5"/>
	<line class="st94" x1="441" y1="385.6" x2="450.4" y2="385.6"/>
	<line class="st95" x1="441" y1="384.7" x2="450.4" y2="384.7"/>
	<line class="st96" x1="441" y1="383.7" x2="450.4" y2="383.7"/>
	<line class="st97" x1="441" y1="382.8" x2="450.4" y2="382.8"/>
	<line class="st98" x1="441" y1="381.8" x2="450.4" y2="381.8"/>
	<line class="st99" x1="441" y1="380.9" x2="450.4" y2="380.9"/>
	<line class="st100" x1="441" y1="380" x2="450.4" y2="380"/>
	<line class="st101" x1="441" y1="379" x2="450.4" y2="379"/>
	<line class="st102" x1="441" y1="378.1" x2="450.4" y2="378.1"/>
	<line class="st103" x1="441" y1="377.1" x2="450.4" y2="377.1"/>
	<line class="st104" x1="441" y1="376.2" x2="450.4" y2="376.2"/>
	<line class="st105" x1="441" y1="375.3" x2="450.4" y2="375.3"/>
	<line class="st106" x1="441" y1="374.3" x2="450.4" y2="374.3"/>
	<line class="st107" x1="441" y1="373.4" x2="450.4" y2="373.4"/>
	<line class="st108" x1="441" y1="372.4" x2="450.4" y2="372.4"/>
	<line class="st109" x1="441" y1="371.5" x2="450.4" y2="371.5"/>
</g>
</svg>
