<?xml version="1.0" encoding="utf-8"?>
<!-- Generator: Adobe Illustrator 24.3.0, SVG Export Plug-In . SVG Version: 6.00 Build 0)  -->
<svg version="1.1" xmlns="http://www.w3.org/2000/svg" xmlns:xlink="http://www.w3.org/1999/xlink" x="0px" y="0px"
	 viewBox="0 0 1054 513" style="enable-background:new 0 0 1054 513;" xml:space="preserve">
<style type="text/css">
	.st0{fill:none;stroke:#0F0100;stroke-miterlimit:10;}
	.st1{font-family:'TimesNewRomanPSMT';}
	.st2{font-size:32px;}
	.st3{font-size:19px;}
	.st4{clip-path:url(#SVGID_2_);}
	.st5{fill:none;stroke:#0000FF;stroke-width:1.5224;stroke-miterlimit:6.0898;}
	.st6{font-size:14.7231px;}
	.st7{font-size:16.7469px;}
	.st8{fill:none;stroke:#0000FF;stroke-width:3.3494;stroke-miterlimit:6.0898;}
	.st9{fill:none;stroke:#0007FF;stroke-width:3.3494;stroke-miterlimit:6.0898;}
	.st10{fill:none;stroke:#000EFF;stroke-width:3.3494;stroke-miterlimit:6.0898;}
	.st11{fill:none;stroke:#0015FF;stroke-width:3.3494;stroke-miterlimit:6.0898;}
	.st12{fill:none;stroke:#001CFF;stroke-width:3.3494;stroke-miterlimit:6.0898;}
	.st13{fill:none;stroke:#0023FF;stroke-width:3.3494;stroke-miterlimit:6.0898;}
	.st14{fill:none;stroke:#002BFF;stroke-width:3.3494;stroke-miterlimit:6.0898;}
	.st15{fill:none;stroke:#0032FF;stroke-width:3.3494;stroke-miterlimit:6.0898;}
	.st16{fill:none;stroke:#0039FF;stroke-width:3.3494;stroke-miterlimit:6.0898;}
	.st17{fill:none;stroke:#0040FF;stroke-width:3.3494;stroke-miterlimit:6.0898;}
	.st18{fill:none;stroke:#0047FF;stroke-width:3.3494;stroke-miterlimit:6.0898;}
	.st19{fill:none;stroke:#004FFF;stroke-width:3.3494;stroke-miterlimit:6.0898;}
	.st20{fill:none;stroke:#0056FF;stroke-width:3.3494;stroke-miterlimit:6.0898;}
	.st21{fill:none;stroke:#005DFF;stroke-width:3.3494;stroke-miterlimit:6.0898;}
	.st22{fill:none;stroke:#0064FF;stroke-width:3.3494;stroke-miterlimit:6.0898;}
	.st23{fill:none;stroke:#006BFF;stroke-width:3.3494;stroke-miterlimit:6.0898;}
	.st24{fill:none;stroke:#0073FF;stroke-width:3.3494;stroke-miterlimit:6.0898;}
	.st25{fill:none;stroke:#007AFF;stroke-width:3.3494;stroke-miterlimit:6.0898;}
	.st26{fill:none;stroke:#0081FF;stroke-width:3.3494;stroke-miterlimit:6.0898;}
	.st27{fill:none;stroke:#0088FF;stroke-width:3.3494;stroke-miterlimit:6.0898;}
	.st28{fill:none;stroke:#008FFF;stroke-width:3.3494;stroke-miterlimit:6.0898;}
	.st29{fill:none;stroke:#0097FF;stroke-width:3.3494;stroke-miterlimit:6.0898;}
	.st30{fill:none;stroke:#009EFF;stroke-width:3.3494;stroke-miterlimit:6.0898;}
	.st31{fill:none;stroke:#00A5FF;stroke-width:3.3494;stroke-miterlimit:6.0898;}
	.st32{fill:none;stroke:#00ACFF;stroke-width:3.3494;stroke-miterlimit:6.0898;}
	.st33{fill:none;stroke:#00B3FF;stroke-width:3.3494;stroke-miterlimit:6.0898;}
	.st34{fill:none;stroke:#00BBFF;stroke-width:3.3494;stroke-miterlimit:6.0898;}
	.st35{fill:none;stroke:#00C2FF;stroke-width:3.3494;stroke-miterlimit:6.0898;}
	.st36{fill:none;stroke:#00C9FF;stroke-width:3.3494;stroke-miterlimit:6.0898;}
	.st37{fill:none;stroke:#00D0FF;stroke-width:3.3494;stroke-miterlimit:6.0898;}
	.st38{fill:none;stroke:#00D7FF;stroke-width:3.3494;stroke-miterlimit:6.0898;}
	.st39{fill:none;stroke:#00DFFF;stroke-width:3.3494;stroke-miterlimit:6.0898;}
	.st40{fill:none;stroke:#00E6FF;stroke-width:3.3494;stroke-miterlimit:6.0898;}
	.st41{fill:none;stroke:#00EDFF;stroke-width:3.3494;stroke-miterlimit:6.0898;}
	.st42{fill:none;stroke:#00F4FF;stroke-width:3.3494;stroke-miterlimit:6.0898;}
	.st43{fill:none;stroke:#00FBFF;stroke-width:3.3494;stroke-miterlimit:6.0898;}
	.st44{fill:none;stroke:#03FFFC;stroke-width:3.3494;stroke-miterlimit:6.0898;}
	.st45{fill:none;stroke:#0AFFF5;stroke-width:3.3494;stroke-miterlimit:6.0898;}
	.st46{fill:none;stroke:#11FFEE;stroke-width:3.3494;stroke-miterlimit:6.0898;}
	.st47{fill:none;stroke:#18FFE7;stroke-width:3.3494;stroke-miterlimit:6.0898;}
	.st48{fill:none;stroke:#1FFFDF;stroke-width:3.3494;stroke-miterlimit:6.0898;}
	.st49{fill:none;stroke:#27FFD8;stroke-width:3.3494;stroke-miterlimit:6.0898;}
	.st50{fill:none;stroke:#2EFFD1;stroke-width:3.3494;stroke-miterlimit:6.0898;}
	.st51{fill:none;stroke:#35FFCA;stroke-width:3.3494;stroke-miterlimit:6.0898;}
	.st52{fill:none;stroke:#3CFFC3;stroke-width:3.3494;stroke-miterlimit:6.0898;}
	.st53{fill:none;stroke:#43FFBB;stroke-width:3.3494;stroke-miterlimit:6.0898;}
	.st54{fill:none;stroke:#4BFFB4;stroke-width:3.3494;stroke-miterlimit:6.0898;}
	.st55{fill:none;stroke:#52FFAD;stroke-width:3.3494;stroke-miterlimit:6.0898;}
	.st56{fill:none;stroke:#59FFA6;stroke-width:3.3494;stroke-miterlimit:6.0898;}
	.st57{fill:none;stroke:#60FF9F;stroke-width:3.3494;stroke-miterlimit:6.0898;}
	.st58{fill:none;stroke:#67FF97;stroke-width:3.3494;stroke-miterlimit:6.0898;}
	.st59{fill:none;stroke:#6FFF90;stroke-width:3.3494;stroke-miterlimit:6.0898;}
	.st60{fill:none;stroke:#76FF89;stroke-width:3.3494;stroke-miterlimit:6.0898;}
	.st61{fill:none;stroke:#7DFF82;stroke-width:3.3494;stroke-miterlimit:6.0898;}
	.st62{fill:none;stroke:#84FF7B;stroke-width:3.3494;stroke-miterlimit:6.0898;}
	.st63{fill:none;stroke:#8BFF73;stroke-width:3.3494;stroke-miterlimit:6.0898;}
	.st64{fill:none;stroke:#93FF6C;stroke-width:3.3494;stroke-miterlimit:6.0898;}
	.st65{fill:none;stroke:#9AFF65;stroke-width:3.3494;stroke-miterlimit:6.0898;}
	.st66{fill:none;stroke:#A1FF5E;stroke-width:3.3494;stroke-miterlimit:6.0898;}
	.st67{fill:none;stroke:#A8FF57;stroke-width:3.3494;stroke-miterlimit:6.0898;}
	.st68{fill:none;stroke:#AFFF4F;stroke-width:3.3494;stroke-miterlimit:6.0898;}
	.st69{fill:none;stroke:#B7FF48;stroke-width:3.3494;stroke-miterlimit:6.0898;}
	.st70{fill:none;stroke:#BEFF41;stroke-width:3.3494;stroke-miterlimit:6.0898;}
	.st71{fill:none;stroke:#C5FF3A;stroke-width:3.3494;stroke-miterlimit:6.0898;}
	.st72{fill:none;stroke:#CCFF33;stroke-width:3.3494;stroke-miterlimit:6.0898;}
	.st73{fill:none;stroke:#D3FF2B;stroke-width:3.3494;stroke-miterlimit:6.0898;}
	.st74{fill:none;stroke:#DBFF24;stroke-width:3.3494;stroke-miterlimit:6.0898;}
	.st75{fill:none;stroke:#E2FF1D;stroke-width:3.3494;stroke-miterlimit:6.0898;}
	.st76{fill:none;stroke:#E9FF16;stroke-width:3.3494;stroke-miterlimit:6.0898;}
	.st77{fill:none;stroke:#F0FF0F;stroke-width:3.3494;stroke-miterlimit:6.0898;}
	.st78{fill:none;stroke:#F7FF07;stroke-width:3.3494;stroke-miterlimit:6.0898;}
	.st79{fill:none;stroke:#FFFF00;stroke-width:3.3494;stroke-miterlimit:6.0898;}
	.st80{fill:none;stroke:#FFF900;stroke-width:3.3494;stroke-miterlimit:6.0898;}
	.st81{fill:none;stroke:#FFF200;stroke-width:3.3494;stroke-miterlimit:6.0898;}
	.st82{fill:none;stroke:#FFEB00;stroke-width:3.3494;stroke-miterlimit:6.0898;}
	.st83{fill:none;stroke:#FFE300;stroke-width:3.3494;stroke-miterlimit:6.0898;}
	.st84{fill:none;stroke:#FFDC00;stroke-width:3.3494;stroke-miterlimit:6.0898;}
	.st85{fill:none;stroke:#FFD500;stroke-width:3.3494;stroke-miterlimit:6.0898;}
	.st86{fill:none;stroke:#FFCE00;stroke-width:3.3494;stroke-miterlimit:6.0898;}
	.st87{fill:none;stroke:#FFC700;stroke-width:3.3494;stroke-miterlimit:6.0898;}
	.st88{fill:none;stroke:#FFBF00;stroke-width:3.3494;stroke-miterlimit:6.0898;}
	.st89{fill:none;stroke:#FFB800;stroke-width:3.3494;stroke-miterlimit:6.0898;}
	.st90{fill:none;stroke:#FFB100;stroke-width:3.3494;stroke-miterlimit:6.0898;}
	.st91{fill:none;stroke:#FFAA00;stroke-width:3.3494;stroke-miterlimit:6.0898;}
	.st92{fill:none;stroke:#FFA300;stroke-width:3.3494;stroke-miterlimit:6.0898;}
	.st93{fill:none;stroke:#FF9B00;stroke-width:3.3494;stroke-miterlimit:6.0898;}
	.st94{fill:none;stroke:#FF9400;stroke-width:3.3494;stroke-miterlimit:6.0898;}
	.st95{fill:none;stroke:#FF8D00;stroke-width:3.3494;stroke-miterlimit:6.0898;}
	.st96{fill:none;stroke:#FF8600;stroke-width:3.3494;stroke-miterlimit:6.0898;}
	.st97{fill:none;stroke:#FF7F00;stroke-width:3.3494;stroke-miterlimit:6.0898;}
	.st98{fill:none;stroke:#FF7700;stroke-width:3.3494;stroke-miterlimit:6.0898;}
	.st99{fill:none;stroke:#FF7000;stroke-width:3.3494;stroke-miterlimit:6.0898;}
	.st100{fill:none;stroke:#FF6900;stroke-width:3.3494;stroke-miterlimit:6.0898;}
	.st101{fill:none;stroke:#FF6200;stroke-width:3.3494;stroke-miterlimit:6.0898;}
	.st102{fill:none;stroke:#FF5B00;stroke-width:3.3494;stroke-miterlimit:6.0898;}
	.st103{fill:none;stroke:#FF5300;stroke-width:3.3494;stroke-miterlimit:6.0898;}
	.st104{fill:none;stroke:#FF4C00;stroke-width:3.3494;stroke-miterlimit:6.0898;}
	.st105{fill:none;stroke:#FF4500;stroke-width:3.3494;stroke-miterlimit:6.0898;}
	.st106{fill:none;stroke:#FF3E00;stroke-width:3.3494;stroke-miterlimit:6.0898;}
	.st107{fill:none;stroke:#FF3700;stroke-width:3.3494;stroke-miterlimit:6.0898;}
	.st108{fill:none;stroke:#FF2F00;stroke-width:3.3494;stroke-miterlimit:6.0898;}
	.st109{fill:none;stroke:#FF2800;stroke-width:3.3494;stroke-miterlimit:6.0898;}
	.st110{fill:none;stroke:#FF2100;stroke-width:3.3494;stroke-miterlimit:6.0898;}
	.st111{fill:none;stroke:#FF1A00;stroke-width:3.3494;stroke-miterlimit:6.0898;}
	.st112{fill:none;stroke:#FF1300;stroke-width:3.3494;stroke-miterlimit:6.0898;}
	.st113{fill:none;stroke:#FF0B00;stroke-width:3.3494;stroke-miterlimit:6.0898;}
	.st114{clip-path:url(#SVGID_4_);fill:#FFFFFF;}
	.st115{clip-path:url(#SVGID_6_);fill:none;stroke:#EBEBEB;stroke-width:0.5335;stroke-linejoin:round;stroke-miterlimit:10;}
	.st116{clip-path:url(#SVGID_8_);fill:none;stroke:#EBEBEB;stroke-width:0.5335;stroke-linejoin:round;stroke-miterlimit:10;}
	.st117{clip-path:url(#SVGID_10_);fill:none;stroke:#EBEBEB;stroke-width:0.5335;stroke-linejoin:round;stroke-miterlimit:10;}
	.st118{clip-path:url(#SVGID_12_);fill:none;stroke:#EBEBEB;stroke-width:0.5335;stroke-linejoin:round;stroke-miterlimit:10;}
	.st119{clip-path:url(#SVGID_14_);fill:none;stroke:#EBEBEB;stroke-width:0.5335;stroke-linejoin:round;stroke-miterlimit:10;}
	.st120{clip-path:url(#SVGID_16_);fill:none;stroke:#EBEBEB;stroke-width:0.5335;stroke-linejoin:round;stroke-miterlimit:10;}
	.st121{clip-path:url(#SVGID_18_);fill:none;stroke:#EBEBEB;stroke-width:0.5335;stroke-linejoin:round;stroke-miterlimit:10;}
	.st122{clip-path:url(#SVGID_20_);fill:none;stroke:#EBEBEB;stroke-width:0.5335;stroke-linejoin:round;stroke-miterlimit:10;}
	.st123{clip-path:url(#SVGID_22_);fill:none;stroke:#EBEBEB;stroke-width:1.067;stroke-linejoin:round;stroke-miterlimit:10;}
	.st124{clip-path:url(#SVGID_24_);fill:none;stroke:#EBEBEB;stroke-width:1.067;stroke-linejoin:round;stroke-miterlimit:10;}
	.st125{clip-path:url(#SVGID_26_);fill:none;stroke:#EBEBEB;stroke-width:1.067;stroke-linejoin:round;stroke-miterlimit:10;}
	.st126{clip-path:url(#SVGID_28_);fill:none;stroke:#EBEBEB;stroke-width:1.067;stroke-linejoin:round;stroke-miterlimit:10;}
	.st127{clip-path:url(#SVGID_30_);fill:none;stroke:#EBEBEB;stroke-width:1.067;stroke-linejoin:round;stroke-miterlimit:10;}
	.st128{clip-path:url(#SVGID_32_);fill:none;stroke:#EBEBEB;stroke-width:1.067;stroke-linejoin:round;stroke-miterlimit:10;}
	.st129{clip-path:url(#SVGID_34_);fill:none;stroke:#EBEBEB;stroke-width:1.067;stroke-linejoin:round;stroke-miterlimit:10;}
	.st130{clip-path:url(#SVGID_36_);fill:none;stroke:#EBEBEB;stroke-width:1.067;stroke-linejoin:round;stroke-miterlimit:10;}
	.st131{clip-path:url(#SVGID_38_);fill:none;stroke:#EBEBEB;stroke-width:1.067;stroke-linejoin:round;stroke-miterlimit:10;}
	.st132{fill:#F8766D;}
	.st133{fill:#B79F00;}
	.st134{fill:#00BA38;}
	.st135{fill:#00BFC4;}
	.st136{fill:#619CFF;}
	.st137{fill:#F564E3;}
	.st138{font-size:13.8876px;}
	.st139{clip-path:url(#SVGID_40_);}
	
		.st140{clip-path:url(#SVGID_42_);fill:none;stroke:#333333;stroke-width:1.067;stroke-linecap:round;stroke-linejoin:round;stroke-miterlimit:10;}
	.st141{fill:#160400;}
	.st142{font-size:14px;}
	.st143{fill:none;stroke:#333333;stroke-width:1.067;stroke-linejoin:round;stroke-miterlimit:10;}
	.st144{font-size:13px;}
	.st145{letter-spacing:79;}
	.st146{letter-spacing:81;}
	.st147{letter-spacing:84;}
	.st148{font-size:13.8377px;}
</style>
<g id="Layer_2">
	<rect x="17.4" y="15" class="st0" width="457.5" height="487"/>
	<rect x="475" y="15" class="st0" width="567" height="487"/>
	<text transform="matrix(1 0 0 1 22.4728 40.3277)" class="st1 st2">a</text>
	<text transform="matrix(1 0 0 1 479.9201 40.3277)" class="st1 st2">b</text>
	<text transform="matrix(1 0 0 1 932.7319 35.8989)" class="st1 st3">Stress: 0.00</text>
</g>
<g id="Layer_1">
	<g>
		<defs>
			<rect id="SVGID_1_" x="39.3" y="37.9" width="362.7" height="428.3"/>
		</defs>
		<clipPath id="SVGID_2_">
			<use xlink:href="#SVGID_1_"  style="overflow:visible;"/>
		</clipPath>
		<g class="st4">
			
				<image style="overflow:visible;enable-background:new    ;" width="24" height="21" xlink:href="84DF4588.png"  image-rendering="pixelated" transform="matrix(14.8347 0 0 19.9495 45.9679 47.2697)">
			</image>
			<line class="st5" x1="77.1" y1="466.2" x2="125.8" y2="466.2"/>
			<line class="st5" x1="77.1" y1="466.2" x2="77.1" y2="430.9"/>
			<line class="st5" x1="125.8" y1="466.2" x2="125.8" y2="347.8"/>
			<line class="st5" x1="60.9" y1="430.9" x2="93.4" y2="430.9"/>
			<line class="st5" x1="60.9" y1="430.9" x2="60.9" y2="413.8"/>
			<line class="st5" x1="93.4" y1="430.9" x2="93.4" y2="403.7"/>
			<line class="st5" x1="53.7" y1="413.8" x2="68.1" y2="413.8"/>
			<line class="st5" x1="53.7" y1="413.8" x2="53.7" y2="347.8"/>
			<line class="st5" x1="68.1" y1="413.8" x2="68.1" y2="347.8"/>
			<line class="st5" x1="82.6" y1="403.7" x2="104.2" y2="403.7"/>
			<line class="st5" x1="82.6" y1="403.7" x2="82.6" y2="347.8"/>
			<line class="st5" x1="104.2" y1="403.7" x2="104.2" y2="365.6"/>
			<line class="st5" x1="97" y1="365.6" x2="111.4" y2="365.6"/>
			<line class="st5" x1="97" y1="365.6" x2="97" y2="347.8"/>
			<line class="st5" x1="111.4" y1="365.6" x2="111.4" y2="347.8"/>
			<line class="st5" x1="387.6" y1="114.7" x2="387.6" y2="57.6"/>
			<line class="st5" x1="387.6" y1="114.7" x2="294.2" y2="114.7"/>
			<line class="st5" x1="387.6" y1="57.6" x2="228.9" y2="57.6"/>
			<line class="st5" x1="294.2" y1="152" x2="294.2" y2="77.4"/>
			<line class="st5" x1="294.2" y1="152" x2="283.2" y2="152"/>
			<line class="st5" x1="294.2" y1="77.4" x2="228.9" y2="77.4"/>
			<line class="st5" x1="283.2" y1="182.2" x2="283.2" y2="121.8"/>
			<line class="st5" x1="283.2" y1="182.2" x2="265.9" y2="182.2"/>
			<line class="st5" x1="283.2" y1="121.8" x2="272.5" y2="121.8"/>
			<line class="st5" x1="265.9" y1="208.1" x2="265.9" y2="156.3"/>
			<line class="st5" x1="265.9" y1="208.1" x2="254.9" y2="208.1"/>
			<line class="st5" x1="265.9" y1="156.3" x2="228.9" y2="156.3"/>
			<line class="st5" x1="254.9" y1="230.4" x2="254.9" y2="185.9"/>
			<line class="st5" x1="254.9" y1="230.4" x2="246.1" y2="230.4"/>
			<line class="st5" x1="254.9" y1="185.9" x2="249.1" y2="185.9"/>
			<line class="st5" x1="246.1" y1="245.2" x2="246.1" y2="215.5"/>
			<line class="st5" x1="246.1" y1="245.2" x2="238" y2="245.2"/>
			<line class="st5" x1="246.1" y1="215.5" x2="228.9" y2="215.5"/>
			<line class="st5" x1="238" y1="255" x2="238" y2="235.3"/>
			<line class="st5" x1="238" y1="255" x2="228.9" y2="255"/>
			<line class="st5" x1="238" y1="235.3" x2="228.9" y2="235.3"/>
			<line class="st5" x1="249.1" y1="195.8" x2="249.1" y2="176.1"/>
			<line class="st5" x1="249.1" y1="195.8" x2="228.9" y2="195.8"/>
			<line class="st5" x1="249.1" y1="176.1" x2="228.9" y2="176.1"/>
			<line class="st5" x1="272.5" y1="136.6" x2="272.5" y2="107"/>
			<line class="st5" x1="272.5" y1="136.6" x2="228.9" y2="136.6"/>
			<line class="st5" x1="272.5" y1="107" x2="265.5" y2="107"/>
			<line class="st5" x1="265.5" y1="116.9" x2="265.5" y2="97.1"/>
			<line class="st5" x1="265.5" y1="116.9" x2="228.9" y2="116.9"/>
			<line class="st5" x1="265.5" y1="97.1" x2="228.9" y2="97.1"/>
			<text transform="matrix(6.123234e-17 -1 1 6.123234e-17 54.6182 335.2334)" class="st1 st6">Station2</text>
			<text transform="matrix(6.123234e-17 -1 1 6.123234e-17 69.0449 335.2334)" class="st1 st6">Station3</text>
			<text transform="matrix(6.123234e-17 -1 1 6.123234e-17 83.4707 335.2334)" class="st1 st6">Station1</text>
			<text transform="matrix(6.123234e-17 -1 1 6.123234e-17 97.8975 335.2334)" class="st1 st6">Station2</text>
			<text transform="matrix(6.123234e-17 -1 1 6.123234e-17 112.3232 335.2334)" class="st1 st6">Station3</text>
			<text transform="matrix(6.123234e-17 -1 1 6.123234e-17 126.75 335.2334)" class="st1 st6">Station1</text>
			<text transform="matrix(1 0 0 1 140.2588 259.9199)" class="st1 st6">Daphnia</text>
			<text transform="matrix(1 0 0 1 140.2588 240.1812)" class="st1 st6">Lucifer</text>
			<text transform="matrix(1 0 0 1 140.2588 220.4429)" class="st1 st6">Fish Larvae</text>
			<text transform="matrix(1 0 0 1 140.2588 200.7041)" class="st1 st6">Mysid</text>
			<text transform="matrix(1 0 0 1 140.2588 180.9658)" class="st1 st6">Copepod</text>
			<text transform="matrix(1 0 0 1 140.2588 161.2271)" class="st1 st6">Acetes</text>
			<text transform="matrix(1 0 0 1 140.2588 141.4888)" class="st1 st6">Crab Larvae</text>
			<text transform="matrix(1 0 0 1 140.2588 121.75)" class="st1 st6">Amphipods</text>
			<text transform="matrix(1 0 0 1 140.2588 102.0117)" class="st1 st6">Shrimp larvae</text>
			<text transform="matrix(1 0 0 1 140.2588 82.2734)" class="st1 st6">Unidentified</text>
			<text transform="matrix(1 0 0 1 140.2588 62.5352)" class="st1 st6">Segitta</text>
		</g>
	</g>
	<text transform="matrix(1 0 0 1 360.2578 337.8203)" class="st1 st7">0</text>
	<text transform="matrix(1 0 0 1 360.2578 283.6885)" class="st1 st7">0.943</text>
	<text transform="matrix(1 0 0 1 360.2578 229.5571)" class="st1 st7">1.89</text>
	<text transform="matrix(1 0 0 1 360.2578 175.4258)" class="st1 st7">2.83</text>
	<line class="st8" x1="340.5" y1="331.7" x2="355.7" y2="331.7"/>
	<line class="st9" x1="340.5" y1="330.2" x2="355.7" y2="330.2"/>
	<line class="st10" x1="340.5" y1="328.7" x2="355.7" y2="328.7"/>
	<line class="st11" x1="340.5" y1="327.2" x2="355.7" y2="327.2"/>
	<line class="st12" x1="340.5" y1="325.6" x2="355.7" y2="325.6"/>
	<line class="st13" x1="340.5" y1="324.1" x2="355.7" y2="324.1"/>
	<line class="st14" x1="340.5" y1="322.6" x2="355.7" y2="322.6"/>
	<line class="st15" x1="340.5" y1="321.1" x2="355.7" y2="321.1"/>
	<line class="st16" x1="340.5" y1="319.6" x2="355.7" y2="319.6"/>
	<line class="st17" x1="340.5" y1="318" x2="355.7" y2="318"/>
	<line class="st18" x1="340.5" y1="316.5" x2="355.7" y2="316.5"/>
	<line class="st19" x1="340.5" y1="315" x2="355.7" y2="315"/>
	<line class="st20" x1="340.5" y1="313.5" x2="355.7" y2="313.5"/>
	<line class="st21" x1="340.5" y1="311.9" x2="355.7" y2="311.9"/>
	<line class="st22" x1="340.5" y1="310.4" x2="355.7" y2="310.4"/>
	<line class="st23" x1="340.5" y1="308.9" x2="355.7" y2="308.9"/>
	<line class="st24" x1="340.5" y1="307.4" x2="355.7" y2="307.4"/>
	<line class="st25" x1="340.5" y1="305.8" x2="355.7" y2="305.8"/>
	<line class="st26" x1="340.5" y1="304.3" x2="355.7" y2="304.3"/>
	<line class="st27" x1="340.5" y1="302.8" x2="355.7" y2="302.8"/>
	<line class="st28" x1="340.5" y1="301.3" x2="355.7" y2="301.3"/>
	<line class="st29" x1="340.5" y1="299.8" x2="355.7" y2="299.8"/>
	<line class="st30" x1="340.5" y1="298.2" x2="355.7" y2="298.2"/>
	<line class="st31" x1="340.5" y1="296.7" x2="355.7" y2="296.7"/>
	<line class="st32" x1="340.5" y1="295.2" x2="355.7" y2="295.2"/>
	<line class="st33" x1="340.5" y1="293.7" x2="355.7" y2="293.7"/>
	<line class="st34" x1="340.5" y1="292.1" x2="355.7" y2="292.1"/>
	<line class="st35" x1="340.5" y1="290.6" x2="355.7" y2="290.6"/>
	<line class="st36" x1="340.5" y1="289.1" x2="355.7" y2="289.1"/>
	<line class="st37" x1="340.5" y1="287.6" x2="355.7" y2="287.6"/>
	<line class="st38" x1="340.5" y1="286.1" x2="355.7" y2="286.1"/>
	<line class="st39" x1="340.5" y1="284.5" x2="355.7" y2="284.5"/>
	<line class="st40" x1="340.5" y1="283" x2="355.7" y2="283"/>
	<line class="st41" x1="340.5" y1="281.5" x2="355.7" y2="281.5"/>
	<line class="st42" x1="340.5" y1="280" x2="355.7" y2="280"/>
	<line class="st43" x1="340.5" y1="278.4" x2="355.7" y2="278.4"/>
	<line class="st44" x1="340.5" y1="276.9" x2="355.7" y2="276.9"/>
	<line class="st45" x1="340.5" y1="275.4" x2="355.7" y2="275.4"/>
	<line class="st46" x1="340.5" y1="273.9" x2="355.7" y2="273.9"/>
	<line class="st47" x1="340.5" y1="272.4" x2="355.7" y2="272.4"/>
	<line class="st48" x1="340.5" y1="270.8" x2="355.7" y2="270.8"/>
	<line class="st49" x1="340.5" y1="269.3" x2="355.7" y2="269.3"/>
	<line class="st50" x1="340.5" y1="267.8" x2="355.7" y2="267.8"/>
	<line class="st51" x1="340.5" y1="266.3" x2="355.7" y2="266.3"/>
	<line class="st52" x1="340.5" y1="264.7" x2="355.7" y2="264.7"/>
	<line class="st53" x1="340.5" y1="263.2" x2="355.7" y2="263.2"/>
	<line class="st54" x1="340.5" y1="261.7" x2="355.7" y2="261.7"/>
	<line class="st55" x1="340.5" y1="260.2" x2="355.7" y2="260.2"/>
	<line class="st56" x1="340.5" y1="258.7" x2="355.7" y2="258.7"/>
	<line class="st57" x1="340.5" y1="257.1" x2="355.7" y2="257.1"/>
	<line class="st58" x1="340.5" y1="255.6" x2="355.7" y2="255.6"/>
	<line class="st59" x1="340.5" y1="254.1" x2="355.7" y2="254.1"/>
	<line class="st60" x1="340.5" y1="252.6" x2="355.7" y2="252.6"/>
	<line class="st61" x1="340.5" y1="251" x2="355.7" y2="251"/>
	<line class="st62" x1="340.5" y1="249.5" x2="355.7" y2="249.5"/>
	<line class="st63" x1="340.5" y1="248" x2="355.7" y2="248"/>
	<line class="st64" x1="340.5" y1="246.5" x2="355.7" y2="246.5"/>
	<line class="st65" x1="340.5" y1="245" x2="355.7" y2="245"/>
	<line class="st66" x1="340.5" y1="243.4" x2="355.7" y2="243.4"/>
	<line class="st67" x1="340.5" y1="241.9" x2="355.7" y2="241.9"/>
	<line class="st68" x1="340.5" y1="240.4" x2="355.7" y2="240.4"/>
	<line class="st69" x1="340.5" y1="238.9" x2="355.7" y2="238.9"/>
	<line class="st70" x1="340.5" y1="237.3" x2="355.7" y2="237.3"/>
	<line class="st71" x1="340.5" y1="235.8" x2="355.7" y2="235.8"/>
	<line class="st72" x1="340.5" y1="234.3" x2="355.7" y2="234.3"/>
	<line class="st73" x1="340.5" y1="232.8" x2="355.7" y2="232.8"/>
	<line class="st74" x1="340.5" y1="231.2" x2="355.7" y2="231.2"/>
	<line class="st75" x1="340.5" y1="229.7" x2="355.7" y2="229.7"/>
	<line class="st76" x1="340.5" y1="228.2" x2="355.7" y2="228.2"/>
	<line class="st77" x1="340.5" y1="226.7" x2="355.7" y2="226.7"/>
	<line class="st78" x1="340.5" y1="225.2" x2="355.7" y2="225.2"/>
	<line class="st79" x1="340.5" y1="223.6" x2="355.7" y2="223.6"/>
	<line class="st80" x1="340.5" y1="222.1" x2="355.7" y2="222.1"/>
	<line class="st81" x1="340.5" y1="220.6" x2="355.7" y2="220.6"/>
	<line class="st82" x1="340.5" y1="219.1" x2="355.7" y2="219.1"/>
	<line class="st83" x1="340.5" y1="217.5" x2="355.7" y2="217.5"/>
	<line class="st84" x1="340.5" y1="216" x2="355.7" y2="216"/>
	<line class="st85" x1="340.5" y1="214.5" x2="355.7" y2="214.5"/>
	<line class="st86" x1="340.5" y1="213" x2="355.7" y2="213"/>
	<line class="st87" x1="340.5" y1="211.5" x2="355.7" y2="211.5"/>
	<line class="st88" x1="340.5" y1="209.9" x2="355.7" y2="209.9"/>
	<line class="st89" x1="340.5" y1="208.4" x2="355.7" y2="208.4"/>
	<line class="st90" x1="340.5" y1="206.9" x2="355.7" y2="206.9"/>
	<line class="st91" x1="340.5" y1="205.4" x2="355.7" y2="205.4"/>
	<line class="st92" x1="340.5" y1="203.8" x2="355.7" y2="203.8"/>
	<line class="st93" x1="340.5" y1="202.3" x2="355.7" y2="202.3"/>
	<line class="st94" x1="340.5" y1="200.8" x2="355.7" y2="200.8"/>
	<line class="st95" x1="340.5" y1="199.3" x2="355.7" y2="199.3"/>
	<line class="st96" x1="340.5" y1="197.8" x2="355.7" y2="197.8"/>
	<line class="st97" x1="340.5" y1="196.2" x2="355.7" y2="196.2"/>
	<line class="st98" x1="340.5" y1="194.7" x2="355.7" y2="194.7"/>
	<line class="st99" x1="340.5" y1="193.2" x2="355.7" y2="193.2"/>
	<line class="st100" x1="340.5" y1="191.7" x2="355.7" y2="191.7"/>
	<line class="st101" x1="340.5" y1="190.1" x2="355.7" y2="190.1"/>
	<line class="st102" x1="340.5" y1="188.6" x2="355.7" y2="188.6"/>
	<line class="st103" x1="340.5" y1="187.1" x2="355.7" y2="187.1"/>
	<line class="st104" x1="340.5" y1="185.6" x2="355.7" y2="185.6"/>
	<line class="st105" x1="340.5" y1="184.1" x2="355.7" y2="184.1"/>
	<line class="st106" x1="340.5" y1="182.5" x2="355.7" y2="182.5"/>
	<line class="st107" x1="340.5" y1="181" x2="355.7" y2="181"/>
	<line class="st108" x1="340.5" y1="179.5" x2="355.7" y2="179.5"/>
	<line class="st109" x1="340.5" y1="178" x2="355.7" y2="178"/>
	<line class="st110" x1="340.5" y1="176.4" x2="355.7" y2="176.4"/>
	<line class="st111" x1="340.5" y1="174.9" x2="355.7" y2="174.9"/>
	<line class="st112" x1="340.5" y1="173.4" x2="355.7" y2="173.4"/>
	<line class="st113" x1="340.5" y1="171.9" x2="355.7" y2="171.9"/>
	<g>
		<defs>
			<rect id="SVGID_3_" x="537.1" y="48.4" width="487.5" height="405.4"/>
		</defs>
		<clipPath id="SVGID_4_">
			<use xlink:href="#SVGID_3_"  style="overflow:visible;"/>
		</clipPath>
		<rect x="537.1" y="48.4" class="st114" width="487.5" height="405.4"/>
	</g>
	<g>
		<defs>
			<rect id="SVGID_5_" x="537.1" y="426.5" width="487.5" height="1.3"/>
		</defs>
		<clipPath id="SVGID_6_">
			<use xlink:href="#SVGID_5_"  style="overflow:visible;"/>
		</clipPath>
		<line class="st115" x1="537.1" y1="426.8" x2="1024.6" y2="426.8"/>
	</g>
	<g>
		<defs>
			<rect id="SVGID_7_" x="537.1" y="293.1" width="487.5" height="1.3"/>
		</defs>
		<clipPath id="SVGID_8_">
			<use xlink:href="#SVGID_7_"  style="overflow:visible;"/>
		</clipPath>
		<line class="st116" x1="537.1" y1="293.7" x2="1024.6" y2="293.7"/>
	</g>
	<g>
		<defs>
			<rect id="SVGID_9_" x="537.1" y="159.8" width="487.5" height="1.3"/>
		</defs>
		<clipPath id="SVGID_10_">
			<use xlink:href="#SVGID_9_"  style="overflow:visible;"/>
		</clipPath>
		<line class="st117" x1="537.1" y1="160.6" x2="1024.6" y2="160.6"/>
	</g>
	<g>
		<defs>
			<rect id="SVGID_11_" x="617.6" y="48.4" width="1.3" height="405.4"/>
		</defs>
		<clipPath id="SVGID_12_">
			<use xlink:href="#SVGID_11_"  style="overflow:visible;"/>
		</clipPath>
		<line class="st118" x1="618.5" y1="453.8" x2="618.5" y2="48.4"/>
	</g>
	<g>
		<defs>
			<rect id="SVGID_13_" x="704.4" y="48.4" width="2.5" height="405.4"/>
		</defs>
		<clipPath id="SVGID_14_">
			<use xlink:href="#SVGID_13_"  style="overflow:visible;"/>
		</clipPath>
		<line class="st119" x1="705.4" y1="453.8" x2="705.4" y2="48.4"/>
	</g>
	<g>
		<defs>
			<rect id="SVGID_15_" x="791.2" y="48.4" width="2.5" height="405.4"/>
		</defs>
		<clipPath id="SVGID_16_">
			<use xlink:href="#SVGID_15_"  style="overflow:visible;"/>
		</clipPath>
		<line class="st120" x1="792.4" y1="453.8" x2="792.4" y2="48.4"/>
	</g>
	<g>
		<defs>
			<rect id="SVGID_17_" x="878" y="48.4" width="2.5" height="405.4"/>
		</defs>
		<clipPath id="SVGID_18_">
			<use xlink:href="#SVGID_17_"  style="overflow:visible;"/>
		</clipPath>
		<line class="st121" x1="879.4" y1="453.8" x2="879.4" y2="48.4"/>
	</g>
	<g>
		<defs>
			<rect id="SVGID_19_" x="964.8" y="48.4" width="2.5" height="405.4"/>
		</defs>
		<clipPath id="SVGID_20_">
			<use xlink:href="#SVGID_19_"  style="overflow:visible;"/>
		</clipPath>
		<line class="st122" x1="966.4" y1="453.8" x2="966.4" y2="48.4"/>
	</g>
	<g>
		<defs>
			<rect id="SVGID_21_" x="537.1" y="358.5" width="487.5" height="2.5"/>
		</defs>
		<clipPath id="SVGID_22_">
			<use xlink:href="#SVGID_21_"  style="overflow:visible;"/>
		</clipPath>
		<line class="st123" x1="537.1" y1="360.3" x2="1024.6" y2="360.3"/>
	</g>
	<g>
		<defs>
			<rect id="SVGID_23_" x="537.1" y="226.4" width="487.5" height="2.5"/>
		</defs>
		<clipPath id="SVGID_24_">
			<use xlink:href="#SVGID_23_"  style="overflow:visible;"/>
		</clipPath>
		<line class="st124" x1="537.1" y1="227.2" x2="1024.6" y2="227.2"/>
	</g>
	<g>
		<defs>
			<rect id="SVGID_25_" x="537.1" y="93.1" width="487.5" height="2.5"/>
		</defs>
		<clipPath id="SVGID_26_">
			<use xlink:href="#SVGID_25_"  style="overflow:visible;"/>
		</clipPath>
		<line class="st125" x1="537.1" y1="94.1" x2="1024.6" y2="94.1"/>
	</g>
	<g>
		<defs>
			<rect id="SVGID_27_" x="573.6" y="48.4" width="2.5" height="405.4"/>
		</defs>
		<clipPath id="SVGID_28_">
			<use xlink:href="#SVGID_27_"  style="overflow:visible;"/>
		</clipPath>
		<line class="st126" x1="575" y1="453.8" x2="575" y2="48.4"/>
	</g>
	<g>
		<defs>
			<rect id="SVGID_29_" x="660.4" y="48.4" width="2.5" height="405.4"/>
		</defs>
		<clipPath id="SVGID_30_">
			<use xlink:href="#SVGID_29_"  style="overflow:visible;"/>
		</clipPath>
		<line class="st127" x1="662" y1="453.8" x2="662" y2="48.4"/>
	</g>
	<g>
		<defs>
			<rect id="SVGID_31_" x="747.2" y="48.4" width="2.5" height="405.4"/>
		</defs>
		<clipPath id="SVGID_32_">
			<use xlink:href="#SVGID_31_"  style="overflow:visible;"/>
		</clipPath>
		<line class="st128" x1="748.9" y1="453.8" x2="748.9" y2="48.4"/>
	</g>
	<g>
		<defs>
			<rect id="SVGID_33_" x="835.2" y="48.4" width="2.5" height="405.4"/>
		</defs>
		<clipPath id="SVGID_34_">
			<use xlink:href="#SVGID_33_"  style="overflow:visible;"/>
		</clipPath>
		<line class="st129" x1="835.9" y1="453.8" x2="835.9" y2="48.4"/>
	</g>
	<g>
		<defs>
			<rect id="SVGID_35_" x="922" y="48.4" width="2.5" height="405.4"/>
		</defs>
		<clipPath id="SVGID_36_">
			<use xlink:href="#SVGID_35_"  style="overflow:visible;"/>
		</clipPath>
		<line class="st130" x1="922.9" y1="453.8" x2="922.9" y2="48.4"/>
	</g>
	<g>
		<defs>
			<rect id="SVGID_37_" x="1008.8" y="48.4" width="2.5" height="405.4"/>
		</defs>
		<clipPath id="SVGID_38_">
			<use xlink:href="#SVGID_37_"  style="overflow:visible;"/>
		</clipPath>
		<line class="st131" x1="1009.9" y1="453.8" x2="1009.9" y2="48.4"/>
	</g>
	<path class="st132" d="M565.1,86.8c0,7.8-11.6,7.8-11.6,0S565.1,79,565.1,86.8"/>
	<path class="st133" d="M702.3,385.9c0,7.8-11.6,7.8-11.6,0S702.3,378.2,702.3,385.9"/>
	<path class="st134" d="M891.8,435.4c0,7.8-11.6,7.8-11.6,0S891.8,427.6,891.8,435.4"/>
	<polygon class="st135" points="989.4,153.2 997.2,166.7 981.5,166.7 	"/>
	<polygon class="st136" points="941.7,104.1 949.5,117.6 933.8,117.6 	"/>
	<polygon class="st137" points="942.8,170.6 950.6,184.1 934.9,184.1 	"/>
	<text transform="matrix(1 0 0 1 543.7516 71.8097)" class="st132 st1 st138">Monsoon</text>
	<text transform="matrix(1 0 0 1 680.9781 370.9557)" class="st133 st1 st138">Monsoon</text>
	<text transform="matrix(1 0 0 1 870.4205 420.3708)" class="st134 st1 st138">Monsoon</text>
	<g>
		<defs>
			<rect id="SVGID_39_" x="961" y="137.1" width="63.6" height="11.3"/>
		</defs>
		<clipPath id="SVGID_40_">
			<use xlink:href="#SVGID_39_"  style="overflow:visible;"/>
		</clipPath>
		<g class="st139">
			<text transform="matrix(1 0 0 1 959.9528 147.2243)" class="st135 st1 st138">PostMonsoon</text>
		</g>
	</g>
	<text transform="matrix(1 0 0 1 912.2379 98.1003)" class="st136 st1 st138">PostMonsoon</text>
	<text transform="matrix(1 0 0 1 897.3452 164.6344)" class="st137 st1 st138">PostMonsoon</text>
	<g>
		<defs>
			<rect id="SVGID_41_" x="537.1" y="48.4" width="487.5" height="405.4"/>
		</defs>
		<clipPath id="SVGID_42_">
			<use xlink:href="#SVGID_41_"  style="overflow:visible;"/>
		</clipPath>
		<rect x="537.1" y="48.4" class="st140" width="487.5" height="405.4"/>
	</g>
	<text transform="matrix(1 0 0 1 507.8324 365.2192)" class="st141 st1 st142">-0.1</text>
	<text transform="matrix(1 0 0 1 511.5179 232.1357)" class="st141 st1 st142">0.0</text>
	<text transform="matrix(1 0 0 1 511.5179 99.0561)" class="st141 st1 st142">0.1</text>
	<line class="st143" x1="533.7" y1="360.3" x2="537.1" y2="360.3"/>
	<line class="st143" x1="533.7" y1="227.2" x2="537.1" y2="227.2"/>
	<line class="st143" x1="533.7" y1="94.1" x2="537.1" y2="94.1"/>
	<line class="st143" x1="575" y1="457.2" x2="575" y2="453.8"/>
	<line class="st143" x1="662" y1="457.2" x2="662" y2="453.8"/>
	<line class="st143" x1="748.9" y1="457.2" x2="748.9" y2="453.8"/>
	<line class="st143" x1="835.9" y1="457.2" x2="835.9" y2="453.8"/>
	<line class="st143" x1="922.9" y1="457.2" x2="922.9" y2="453.8"/>
	<line class="st143" x1="1009.9" y1="457.2" x2="1009.9" y2="453.8"/>
	<text transform="matrix(1 0 0 1 565.4469 467.9176)"><tspan x="0" y="0" class="st141 st1 st144">-0.</tspan><tspan x="14.1" y="0" class="st141 st1 st144 st145">3</tspan><tspan x="100.3" y="0" class="st141 st1 st144">-0.2</tspan></text>
	<text transform="matrix(1 0 0 1 739.4 467.9176)"><tspan x="0" y="0" class="st141 st1 st144">-0.</tspan><tspan x="14.1" y="0" class="st141 st1 st144 st146">1</tspan><tspan x="102.5" y="0" class="st141 st1 st144">0.0</tspan></text>
	<text transform="matrix(1 0 0 1 915.1959 467.9176)"><tspan x="0" y="0" class="st141 st1 st144">0.</tspan><tspan x="9.8" y="0" class="st141 st1 st144 st147">1</tspan><tspan x="100.3" y="0" class="st141 st1 st144">0.2</tspan></text>
	<text transform="matrix(1 0 0 1 756.6237 488.6669)" class="st141 st1 st148">NMDS1</text>
	<text transform="matrix(6.123234e-17 -1 1 6.123234e-17 504.819 275.321)" class="st141 st1 st148">NMDS2</text>
</g>
</svg>
